<svg width="191" height="64" viewBox="0 0 191 64" fill="none" xmlns="http://www.w3.org/2000/svg">
<g clip-path="url(#clip0_182_652)">
<path d="M45.3088 4.97748H37.6691V8.2958C37.6691 8.64774 37.4446 8.82539 36.9788 8.82539C36.5399 8.82539 36.312 8.65109 36.312 8.2958V0.52959C36.312 0.177647 36.5499 0 37.0157 0C37.4546 0 37.6691 0.174296 37.6691 0.52959V3.94847H45.3088V0.516183C45.3088 0.177647 45.5333 0 45.9756 0C46.4179 0 46.6659 0.174296 46.6659 0.516183V8.29915C46.6659 8.65109 46.428 8.82874 45.9756 8.82874C45.5233 8.82874 45.3088 8.65445 45.3088 8.29915V4.98083V4.97748Z" fill="#E2E5EB"/>
<path d="M57.5962 6.43553H51.2498L49.9564 8.46004C49.7923 8.71143 49.5678 8.82539 49.303 8.82539C48.8876 8.82539 48.6128 8.63769 48.6128 8.30921C48.6128 8.18184 48.6396 8.08128 48.7502 7.92039L53.7261 0.338536C53.8768 0.110611 54.1415 0.0100555 54.4163 0C54.6944 0 54.9323 0.113962 55.0831 0.338536L60.0724 7.90699C60.1997 8.07123 60.2366 8.18519 60.2366 8.30921C60.2366 8.63769 59.9585 8.82539 59.5463 8.82539C59.295 8.82539 59.0705 8.71143 58.9063 8.46004L57.5995 6.43553H57.5962ZM51.8764 5.46685H56.9796L54.4163 1.49492L51.8764 5.46685Z" fill="#E2E5EB"/>
<path d="M65.41 8.76171C62.9606 8.76171 61.7275 7.95727 61.7275 6.34839V2.44014C61.7275 0.854724 62.9338 0.0636902 65.3464 0.0636902H70.1614C70.5635 0.0636902 70.7913 0.237986 70.7913 0.579873C70.7913 0.921761 70.5668 1.09606 70.1614 1.09606H65.3732C63.8519 1.09606 63.0846 1.54855 63.0846 2.46696V6.31487C63.0846 7.25673 63.8653 7.73605 65.4737 7.73605H70.1614C70.5635 7.73605 70.7913 7.91369 70.7913 8.25223C70.7913 8.59077 70.5668 8.76841 70.1614 8.76841H65.41V8.76171Z" fill="#E2E5EB"/>
<path d="M74.3433 5.12831V8.2958C74.3433 8.64774 74.1054 8.82539 73.6631 8.82539C73.2208 8.82539 72.9829 8.65109 72.9829 8.2958V0.516183C72.9829 0.177647 73.2208 0 73.6631 0C74.1054 0 74.3433 0.174296 74.3433 0.516183V3.60993L80.7801 0.150833C80.9678 0.0502776 81.132 0 81.3095 0C81.7116 0 81.9495 0.187703 81.9495 0.516183C81.9495 0.680423 81.8725 0.868126 81.6111 1.00555L75.1643 4.33728L81.7384 7.76956C82.0534 7.9338 82.1405 8.07123 82.1405 8.29915C82.1405 8.62763 81.8892 8.82874 81.4369 8.82874C81.3095 8.82874 81.1487 8.81534 80.9075 8.6645L74.3467 5.13166L74.3433 5.12831Z" fill="#E2E5EB"/>
<path d="M87.3744 8.76171C84.925 8.76171 83.6919 7.95727 83.6919 6.34839V2.44014C83.6919 0.854724 84.8982 0.0636902 87.3107 0.0636902H89.1067C89.5222 0.0636902 89.7367 0.237986 89.7367 0.579873C89.7367 0.921761 89.5222 1.09606 89.1067 1.09606H87.3342C85.8129 1.09606 85.0456 1.54855 85.0456 2.46696V3.88814H92.5345C92.9366 3.88814 93.1377 4.05238 93.1377 4.37751C93.1377 4.70263 92.9366 4.86687 92.5345 4.86687H85.0456V6.31152C85.0456 7.25338 85.8263 7.7327 87.4347 7.7327H92.5379C92.9668 7.7327 93.1779 7.91034 93.1779 8.24888C93.1779 8.58741 92.9634 8.76506 92.5379 8.76506H87.371L87.3744 8.76171Z" fill="#E2E5EB"/>
<path d="M103.85 6.43553H97.5037L96.2104 8.46004C96.0462 8.71143 95.8217 8.82539 95.557 8.82539C95.1415 8.82539 94.8667 8.63769 94.8667 8.30921C94.8667 8.18184 94.8935 8.08128 95.0041 7.92039L99.98 0.338536C100.131 0.110611 100.395 0.0100555 100.67 0C100.948 0 101.186 0.113962 101.337 0.338536L106.326 7.90699C106.454 8.07123 106.49 8.18519 106.49 8.30921C106.49 8.63769 106.212 8.82539 105.8 8.82539C105.549 8.82539 105.324 8.71143 105.16 8.46004L103.853 6.43553H103.85ZM98.1303 5.46685H103.234L100.67 1.49492L98.1303 5.46685Z" fill="#E2E5EB"/>
<path d="M109.791 0.278203L117.37 6.96512V0.516183C117.37 0.177647 117.598 0 118.051 0C118.503 0 118.731 0.174296 118.731 0.516183V8.29915C118.731 8.65109 118.493 8.82874 118.014 8.82874C117.736 8.82874 117.561 8.72819 117.347 8.54048L109.781 1.85357V8.3025C109.781 8.65445 109.543 8.83209 109.091 8.83209C108.638 8.83209 108.424 8.6578 108.424 8.3025V0.539646C108.424 0.174296 108.662 0 109.127 0C109.392 0 109.58 0.0871478 109.794 0.278203H109.791Z" fill="#E2E5EB"/>
<path d="M121.83 8.76171C121.441 8.76171 121.227 8.61088 121.227 8.32262V0.502781C121.227 0.214523 121.428 0.0636902 121.807 0.0636902H127.714C130.314 0.0636902 131.621 0.868131 131.621 2.49042V6.33833C131.621 7.96062 130.314 8.76506 127.714 8.76506H121.834L121.83 8.76171ZM130.264 2.52729C130.264 1.57202 129.436 1.0927 127.764 1.0927H122.688C122.624 1.0927 122.587 1.11952 122.587 1.1698V7.6556C122.587 7.70588 122.624 7.72934 122.688 7.72934H127.754C129.44 7.72934 130.267 7.25338 130.267 6.29476V2.52729H130.264Z" fill="#E2E5EB"/>
<path d="M137.686 8.76171C135.236 8.76171 134.003 7.95727 134.003 6.34839V2.46361C134.003 0.868131 135.21 0.0636902 137.622 0.0636902H140.423C142.836 0.0636902 144.042 0.868131 144.042 2.46361V6.34839C144.042 7.95727 142.809 8.76171 140.36 8.76171H137.683H137.686ZM142.689 2.48707C142.689 1.55526 141.921 1.0927 140.4 1.0927H137.649C136.128 1.0927 135.36 1.55861 135.36 2.48707V6.30816C135.36 7.25003 136.128 7.72934 137.672 7.72934H140.373C141.918 7.72934 142.685 7.25338 142.685 6.30816V2.49042L142.689 2.48707Z" fill="#E2E5EB"/>
<path d="M159.613 6.43553H153.267L151.974 8.46004C151.809 8.71143 151.585 8.82539 151.32 8.82539C150.905 8.82539 150.63 8.63769 150.63 8.30921C150.63 8.18184 150.657 8.08128 150.767 7.92039L155.743 0.338536C155.894 0.110611 156.159 0.0100555 156.433 0C156.712 0 156.949 0.113962 157.1 0.338536L162.089 7.90699C162.217 8.07123 162.254 8.18519 162.254 8.30921C162.254 8.63769 161.976 8.82539 161.563 8.82539C161.312 8.82539 161.088 8.71143 160.923 8.46004L159.617 6.43553H159.613ZM153.894 5.46685H158.997L156.433 1.49492L153.894 5.46685Z" fill="#E2E5EB"/>
<path d="M14.6862 19.0451H24.6714C24.7485 19.0451 24.7887 19.0854 24.7887 19.1625L25.0199 19.0451H25.1372C30.1901 19.0451 33.4002 20.0909 34.774 22.1825C35.1995 22.3568 35.7423 23.5198 36.3991 25.6684C36.3991 26.2315 36.6705 26.694 37.2133 27.0627C37.6389 26.9856 37.9472 26.9454 38.1415 26.9454C38.49 27.0996 38.6843 27.2538 38.7212 27.4113V27.9912C38.7212 28.5342 38.2186 28.8057 37.21 28.8057L36.8615 29.2716C36.9386 29.58 37.1698 29.7375 37.5585 29.7375H38.3727C38.6039 29.7375 38.7212 29.8917 38.7212 30.2034C38.7212 30.6492 38.681 31.2693 38.6039 32.0603L38.7212 32.6402C38.7212 33.1229 38.1013 33.3944 36.8649 33.4547C36.6337 33.7061 36.1679 35.0602 35.4709 37.5205C35.3537 37.5205 34.9683 37.9462 34.3116 38.7975C33.943 38.9349 33.3633 39.2802 32.5692 39.8433V40.1919C33.4203 40.4433 34.3886 41.0634 35.4709 42.0488C35.4709 42.2801 35.3168 42.3974 35.0052 42.3974C34.774 42.3974 34.5026 42.3572 34.1909 42.2801C33.7855 42.3572 33.3968 42.3974 33.0282 42.3974H32.797C32.4888 42.3974 32.3313 42.3572 32.3313 42.2801L31.517 42.3974H28.498C28.0323 42.3974 27.8011 42.5516 27.8011 42.8633C27.9183 43.2521 28.1864 43.4432 28.6153 43.4432H35.93C36.5499 43.889 36.8582 44.3146 36.8582 44.7202V45.88C36.8582 46.1313 36.7409 46.4028 36.5097 46.6945V47.1604L37.0894 47.043C37.2837 47.043 37.4378 47.9715 37.5551 49.8318C37.478 50.4318 37.4378 51.0921 37.4378 51.806V52.2719C37.4378 52.349 37.5149 52.6607 37.669 53.2004C37.3608 53.3546 36.9319 53.4316 36.3924 53.4316H35.9266L35.6954 54.2461V55.6405C35.6954 55.9489 36.3924 56.2606 37.7863 56.569V56.6863L37.669 56.9176C37.8232 57.1689 37.9002 57.4002 37.9002 57.6147C37.5116 58.1376 37.1631 58.9119 36.8548 59.9376C36.7174 59.9376 36.3321 60.3633 35.6921 61.2146C35.4408 61.523 34.2781 61.6805 32.2073 61.6805C31.0446 61.6805 30.4649 61.6034 30.4649 61.4492L29.071 61.6805C28.937 61.6235 28.3941 61.5465 27.4459 61.4492C26.826 61.6034 26.1692 61.6805 25.4723 61.6805H24.4268C23.9611 61.7207 23.7299 61.8347 23.7299 62.0291V62.3777L23.8472 62.609L25.8207 62.3777C26.3234 62.609 26.6718 62.7263 26.8662 62.7263H27.5631C27.6402 62.7263 28.106 62.609 28.9571 62.3777L30.4683 62.8436C31.1652 62.6123 31.6276 62.495 31.8622 62.495H32.5591C32.7133 62.5151 32.7903 62.5922 32.7903 62.7263V62.8436C32.7903 63.0749 32.4016 63.2693 31.6276 63.4235C31.5304 63.4235 31.1451 63.3833 30.4683 63.3062C29.8484 63.6916 29.3457 63.886 28.9571 63.886C28.7259 63.886 27.9887 63.8458 26.7523 63.7687C26.2865 63.8257 26.0553 63.9028 26.0553 64C25.804 64 25.6097 63.9598 25.4756 63.8827C23.4618 63.9598 21.8769 64 20.7142 64H16.184C15.1787 63.943 14.6761 63.7855 14.6761 63.5341L14.7934 62.9542C14.7934 62.8771 14.7532 62.8369 14.6761 62.8369L14.7934 62.0224V60.0482L14.6761 59.2337C14.9844 59.0024 15.4501 58.8851 16.07 58.8851C16.5157 58.8851 17.1356 58.9253 17.9264 59.0024C18.1576 59.0024 18.429 58.9622 18.7406 58.8851C20.2886 58.9622 21.6424 59.0024 22.8051 59.0024H26.2899C26.7154 59.0024 27.2582 58.9622 27.915 58.8851C28.049 58.9622 28.2433 59.0024 28.4947 59.0024C28.6287 59.0024 28.8632 58.9253 29.1916 58.7711C29.0375 58.3052 28.7259 58.0739 28.2635 58.0739H24.5475C24.142 58.0739 23.7935 58.1142 23.502 58.1913C23.0966 58.1142 22.7079 58.0739 22.3393 58.0739H16.07L15.3731 58.1913C14.9073 57.9969 14.6761 57.7253 14.6761 57.3768L14.7934 57.1455C14.656 56.6025 14.5019 56.331 14.3276 56.331H13.1649C12.5651 56.331 12.1765 56.1366 12.0022 55.7511L-0.0102539 54.4741L11.8883 53.6596L0.338225 53.311H13.3961C14.3243 53.311 14.79 52.8853 14.79 52.0339C14.79 51.9166 14.4818 51.5312 13.8619 50.8708V41.1136C13.939 40.8824 14.1702 40.7651 14.5588 40.7651H21.0627C21.1799 40.7651 21.2939 40.6477 21.4112 40.4165V40.2991C21.3341 40.0679 21.1029 39.9506 20.7142 39.9506C20.4059 39.9506 20.2484 39.9908 20.2484 40.0679L19.0857 39.9506H17.1121C16.7435 39.9506 16.3582 39.9908 15.9494 40.0679C15.6579 39.9908 15.3094 39.9506 14.904 39.9506H14.207C13.9758 39.8735 13.8585 39.6422 13.8585 39.2534V35.5362L13.9758 34.839C13.8987 34.7049 13.8585 34.5105 13.8585 34.2591V34.0279C13.8585 33.3307 14.4382 32.9821 15.6009 32.9821L15.8321 31.4704C15.8321 30.3878 15.678 29.8448 15.3664 29.8448C15.2893 29.8448 15.172 29.8079 15.0179 29.7275L14.4382 29.8448C14.0897 29.6906 13.8954 29.5364 13.8585 29.3789V29.0303C13.8585 28.799 14.207 28.6046 14.904 28.4504H15.7182C15.7182 28.3733 15.7551 28.256 15.8355 28.1018C15.8355 27.4817 15.4099 27.1733 14.5588 27.1733C14.3276 27.0761 14.0562 26.8449 13.7446 26.4762L13.8619 25.8963C13.8619 25.1991 13.8987 24.4248 13.9792 23.5735C13.9021 22.9165 13.8619 22.4104 13.8619 22.0618L13.9792 21.2473C13.9021 20.8384 13.8619 20.3691 13.8619 19.8395C13.8619 19.3971 14.2305 19.0384 14.6761 19.0384L14.6862 19.0451ZM22.8151 44.3683L22.9324 44.5996C22.9324 44.928 22.8553 45.2398 22.7012 45.528C22.7012 45.5682 22.7414 45.7224 22.8185 45.9939C22.8185 46.2453 22.7783 46.4397 22.7012 46.5738C22.7783 47.2307 22.8185 47.7737 22.8185 48.1994V49.8251C22.8185 50.3278 22.7783 50.8306 22.7012 51.3368L22.9324 53.1937C22.6811 53.3479 22.4499 53.4249 22.2354 53.4249H21.4212C21.3642 53.4249 21.0928 53.6964 20.607 54.2394H19.91L19.7927 54.7053L20.1412 54.9366C20.4495 54.7824 20.684 54.7053 20.8382 54.7053C21.1665 55.4997 21.438 55.9623 21.6524 56.0997L22.4666 56.331H22.5839L23.2809 56.2137C23.6696 56.2137 23.9008 56.522 23.9778 57.1421L24.5575 57.2594H25.0233C27.2683 57.2594 28.3908 57.0282 28.3908 56.5623C28.3908 56.331 27.9652 56.2137 27.1141 56.2137C27.0371 56.2137 26.9198 56.2539 26.7657 56.331C26.4172 56.1768 26.2228 56.0226 26.186 55.8651L26.7657 54.1221C26.6886 53.9679 26.6484 53.8506 26.6484 53.7735C27.017 53.3847 27.5967 53.1937 28.3908 53.1937L28.5081 52.9624V47.8508C28.5081 46.0308 27.734 44.794 26.186 44.1336C25.7805 44.1336 25.0434 44.0566 23.9812 43.9024H23.2842C23.2072 43.9024 23.053 44.0566 22.8185 44.3683H22.8151ZM22.9324 26.0136V26.4795C22.9324 26.7711 23.4752 26.9622 24.5575 27.0594L24.6748 27.2907V27.8705C24.6748 28.4336 24.5575 28.742 24.3263 28.799H24.209C24.0147 28.799 23.8606 28.4504 23.7433 27.7532L23.5121 27.6359H23.3948L23.2775 28.2158L23.7433 28.6817C23.1033 29.1476 22.5638 29.3789 22.1182 29.3789C21.7295 29.3789 21.5385 29.6101 21.5385 30.076V30.3073C21.5385 30.5218 22.1952 30.7129 23.5121 30.8872C23.9376 30.8101 24.2861 30.7699 24.5575 30.7699L24.6748 31.0011V32.9754C24.6748 33.0927 24.5575 33.2067 24.3263 33.324H23.9778C23.8036 33.324 23.6495 33.2837 23.5121 33.2067C23.0463 33.2067 22.8151 34.0212 22.8151 35.6468V35.9954C22.8151 36.6523 22.9693 37.0814 23.2809 37.2724C25.5259 36.9808 26.6484 36.6725 26.6484 36.344C26.6484 36.1697 26.9198 35.7842 27.4626 35.1809L27.8111 34.1351C27.734 33.9809 27.6938 33.8636 27.6938 33.7865C28.0423 33.2435 28.6622 32.972 29.5501 32.972L29.7813 31.3464C29.7813 30.2637 29.5501 29.7207 29.0844 29.7207H28.9671L28.1529 29.8381L27.8044 29.1409C27.8044 29.0638 27.9585 28.8325 28.2702 28.4437L28.8498 28.561H29.081C29.1983 28.561 29.3122 28.4437 29.4295 28.2124V27.9811C29.1011 27.4381 28.8666 27.1666 28.7326 27.1666H27.9183C27.7039 27.1666 27.0103 26.741 25.8275 25.8896L25.2478 25.7723H24.4335C24.1621 25.7723 23.8136 25.7321 23.3881 25.655C23.0798 25.7723 22.9223 25.8862 22.9223 26.0036L22.9324 26.0136ZM34.4289 54.2394V54.4707H34.6601C34.6601 54.3165 34.583 54.2394 34.4289 54.2394ZM35.94 45.6453L36.0573 46.2252H36.2885L36.1712 45.6453H35.94Z" fill="#00F0C9"/>
<path d="M61.3825 17.2452C64.3244 17.2452 66.5694 17.4765 68.1175 17.9424C69.0255 18.3312 70.0341 18.9479 71.1365 19.7993C71.1365 20.0306 71.5219 20.4194 72.2959 20.9624C72.5472 22.2026 73.1269 22.8193 74.0383 22.8193C74.8693 22.8193 75.4489 23.245 75.7807 24.0964V24.2137C75.5093 24.4852 75.0066 24.6796 74.2695 24.7935C74.2695 25.3365 73.7669 25.608 72.7616 25.608H70.6708C70.5535 25.608 70.4396 25.7254 70.3223 25.9566V26.3052C70.3223 26.5365 70.4764 26.6538 70.788 26.6538C71.3878 26.6538 72.4735 26.694 74.0383 26.7711C74.1723 26.8884 74.2896 27.3912 74.3868 28.2828L74.1556 30.6056C74.2326 31.4 74.3499 32.057 74.504 32.5799C74.504 33.4312 74.1958 33.8569 73.5759 33.8569H68.466C68.3487 33.8569 68.2348 33.9742 68.1175 34.2055V34.5541L68.3487 34.9027L68.9284 34.7854H70.7847C73.2609 34.7854 74.5007 34.9798 74.5007 35.3652C74.4236 35.5965 74.3465 35.7138 74.2695 35.7138C74.2695 36.3138 74.8894 36.7395 76.1258 36.9909V37.2222L76.0085 37.4534C76.1627 37.7048 76.2397 37.8992 76.2397 38.0333C75.9482 38.2646 75.717 38.3819 75.5428 38.3819L75.077 38.2646C74.5342 38.5361 74.2628 38.8445 74.2628 39.193C74.2628 39.2701 74.303 39.3875 74.3801 39.5416C74.303 40.1986 74.2628 40.7416 74.2628 41.1673V41.5159C74.2628 41.9416 74.303 42.4846 74.3801 43.1415C74.3801 43.2186 74.3398 43.2588 74.2628 43.2588C74.3398 43.6644 74.3801 43.899 74.3801 43.956C74.3801 44.499 74.3398 45.5448 74.2628 47.0933C74.3398 47.6363 74.3801 47.9447 74.3801 48.0218C74.303 48.3134 74.2628 48.6218 74.2628 48.9502C74.2628 49.1245 74.303 49.2787 74.3801 49.4161C74.303 49.8418 74.2628 50.1904 74.2628 50.4619V51.8563C74.2628 52.4764 74.2226 53.2104 74.1455 54.0618C74.1455 54.5076 74.571 54.7791 75.4221 54.8763H76.4676C76.5849 54.8763 76.6988 54.9936 76.8161 55.2249C76.3704 56.6963 76.0621 57.4304 75.8879 57.4304C75.5595 57.4304 74.2025 57.5075 71.8234 57.6617C71.7464 57.6617 71.7061 57.6215 71.7061 57.5444L71.1265 57.6617H68.9217C68.4191 57.6617 67.645 57.6215 66.5996 57.5444L66.2511 58.0103C66.2511 58.0874 66.4052 58.2415 66.7169 58.4762L67.2965 58.3589H67.9935C68.982 58.3589 70.0643 58.3991 71.2437 58.4762L71.8234 58.3589L72.4031 58.4762L73.2173 58.3589L73.9143 58.7074H74.3801L74.7285 58.4762H75.077C75.3082 58.5533 75.4255 58.7845 75.4255 59.1734C74.7486 59.7733 74.0885 60.2761 73.4519 60.6817C73.4519 61.2615 72.2121 61.9219 69.7359 62.6559C67.9566 62.9643 66.5225 63.1218 65.4402 63.1218H63.5839C60.8363 62.8503 59.1307 62.3878 58.474 61.7275C57.6229 61.3789 56.5775 60.3733 55.3377 58.7074L53.8265 54.8729H52.0841C51.4642 54.8729 51.1559 54.6417 51.1559 54.1758C51.0789 53.4417 51.0387 52.6272 51.0387 51.7356V41.6298C51.0387 41.2041 50.9985 40.6611 50.9214 40.0042C50.9985 39.85 51.0387 39.7327 51.0387 39.6556L50.9214 38.9584C50.9616 38.5126 51.5413 38.2411 52.6638 38.1439C52.7978 37.9495 52.9151 37.6411 53.0123 37.2155C52.895 36.9071 52.7811 36.7496 52.6638 36.7496H51.8495C51.424 36.7496 51.1124 36.5552 50.9214 36.1697C50.9214 35.744 51.1526 35.4356 51.6183 35.2412L52.4326 35.3585H52.8983C53.1496 35.3585 53.344 35.3183 53.478 35.2412L54.0577 35.3585C55.9341 35.2815 57.1337 35.2412 57.6564 35.2412L59.1676 35.5898C59.3217 35.5127 59.439 35.4725 59.5161 35.4725L60.5615 36.7496H61.607C61.7242 36.7496 61.8382 36.8669 61.9554 37.0981V38.0266C61.9152 38.1808 61.7242 38.335 61.3758 38.4925C60.9502 38.4154 60.6017 38.3752 60.3303 38.3752C60.0991 38.6266 59.9818 38.821 59.9818 38.9551C60.0589 39.4981 60.0991 39.8064 60.0991 39.8835C60.022 40.1148 59.945 40.2321 59.8679 40.2321L59.9852 40.812V41.9751C59.9852 42.1494 59.945 42.3036 59.8679 42.441L59.9852 42.6723C59.9081 43.3292 59.8679 43.8722 59.8679 44.2979C59.945 44.975 59.9852 45.3638 59.9852 45.4576H59.8679L59.9852 45.6889V46.852C59.9852 46.9291 59.945 46.9693 59.8679 46.9693L59.9852 47.2006V52.0809C59.9852 53.864 60.4878 54.7523 61.493 54.7523C61.6472 54.7523 61.9186 54.8294 62.3073 54.9836L63.0042 54.8662H63.2354C63.9123 55.8718 64.5724 56.3779 65.209 56.3779H65.5575C65.7317 56.3578 66.04 56.1265 66.4857 55.6807C66.9112 55.6807 67.1826 55.5266 67.2999 55.2148V55.0975C67.2999 54.9433 67.2228 54.8662 67.0687 54.8662H65.3263C65.209 54.8662 65.0951 54.7489 64.9778 54.5176V54.4003C65.209 54.2059 65.3263 53.1602 65.3263 51.263V38.7171C65.3263 38.5428 65.9462 38.3115 67.1826 38.0199V36.8602C65.9831 36.8602 65.3263 36.5887 65.209 36.0457L65.3263 34.8859L65.209 34.1888C65.2861 33.8804 65.3263 33.6089 65.3263 33.3743C65.3263 33.0257 65.2861 32.7944 65.209 32.6771C65.2861 32.1542 65.3263 31.7285 65.3263 31.4V28.6113C65.3263 28.2828 65.2861 27.8571 65.209 27.3342C65.2861 27.1801 65.3263 27.0627 65.3263 26.9857C65.3263 26.2315 65.0549 25.6114 64.5121 25.1287V24.8975C64.5121 24.8204 64.7835 24.5891 65.3263 24.2003L64.5121 23.969C64.0865 23.969 63.4666 24.2003 62.6557 24.6662C62.5787 24.6662 62.5385 24.6293 62.5385 24.5489C60.9904 24.5489 60.2164 25.4405 60.2164 27.2203L59.8679 28.3834C59.8679 28.9264 59.9081 29.7777 59.9852 30.9375C59.9081 31.8659 59.754 32.3318 59.5194 32.3318H59.2882L59.057 32.2145L58.9398 32.4458V32.6771L59.057 32.9083L59.2882 32.791H59.5194C59.9081 32.9854 60.0991 33.2938 60.0991 33.7195C60.0991 34.1854 58.9766 34.4167 56.7316 34.4167H51.3905L50.9247 34.0681L51.042 33.4882C51.042 33.334 51.0018 33.2569 50.9247 33.2569L51.042 32.4424V27.4482C51.2163 25.5142 51.5245 24.5455 51.9702 24.5455C53.0525 24.5455 53.5953 24.1969 53.5953 23.4997V23.3824C53.5953 23.2651 53.1697 23.1109 52.3187 22.9165L52.2014 22.6852C52.2014 22.3769 52.8581 21.368 54.175 19.6652C54.3693 19.6652 54.8719 19.2798 55.6828 18.5021C57.251 17.6508 59.1475 17.2251 61.3724 17.2251L61.3825 17.2452ZM59.0604 41.174C59.0604 41.2511 59.0202 41.3684 58.9431 41.5226C59.0202 41.8913 59.0604 42.3941 59.0604 43.0309H59.1777C59.1777 42.8365 59.2145 42.2566 59.2949 41.2879L59.0637 41.1706L59.0604 41.174ZM59.0604 26.074V26.1913C59.0805 26.3454 59.1576 26.4225 59.2916 26.4225H59.4089C59.563 26.4225 59.6401 26.3454 59.6401 26.1913V25.8427H59.2916C59.1374 25.8628 59.0604 25.9399 59.0604 26.074Z" fill="#00F0C9"/>
<path d="M88.805 18.4619C88.882 18.4619 88.9223 18.5022 88.9223 18.5792L89.1535 18.4619H92.9867C94.1494 18.4619 95.0776 18.539 95.7746 18.6932C95.8918 18.6161 96.123 18.5759 96.4715 18.5759L97.0512 18.9245C97.011 19.6217 96.9339 19.9703 96.82 19.9703L96.9373 20.2015V21.13C96.9373 21.3043 96.8971 21.4585 96.82 21.5959C96.9741 21.9847 97.0512 22.2529 97.0512 22.4104C96.9741 22.702 96.9339 23.0104 96.9339 23.3389C97.2422 23.493 97.3997 23.6104 97.3997 23.6874L97.6309 23.5701C98.4049 23.6673 98.7936 23.8215 98.7936 24.036V24.8505C98.7936 24.9678 98.6395 25.122 98.3278 25.3164C97.8453 25.3164 96.5285 25.3935 94.3807 25.5477C93.5095 25.4706 92.6986 25.4304 91.9413 25.4304C90.9729 25.5075 90.3932 25.5477 90.1989 25.5477C89.9476 25.2393 89.7164 24.6963 89.5019 23.9221C89.3478 23.845 89.2305 23.8048 89.1535 23.8048L88.4565 23.9221C88.0678 23.5735 87.8768 22.8394 87.8768 21.7166C87.8768 21.6596 87.917 21.425 87.9941 21.0194C87.917 20.0909 87.8768 19.3937 87.8768 18.9278C88.2052 18.6195 88.5168 18.4619 88.805 18.4619ZM88.5738 25.0818C88.7849 25.0818 88.9424 25.4706 89.0395 26.2449L89.2707 26.3622H94.3807C94.4979 26.3622 95.1145 26.4393 96.237 26.5935H96.7027C96.82 26.5935 96.9339 26.7108 97.0512 26.9421C97.0512 27.4851 96.9741 27.7566 96.82 27.7566L96.9373 28.3364V32.4022L97.0546 33.0994L96.7061 33.6793L95.8918 33.562C95.1547 33.7932 94.575 33.9105 94.1494 33.9105H91.5962C91.3247 33.9105 90.9763 33.8703 90.5507 33.7932C90.3966 33.8703 90.2793 33.9105 90.2023 33.9105C89.5254 33.8335 89.0999 33.7932 88.9256 33.7932L88.3459 33.9105C88.0377 33.5821 87.8802 33.2703 87.8802 32.9821V31.819C87.8802 31.5877 87.9204 31.4704 87.9974 31.4704L87.8802 30.8905V28.1018C87.8802 27.7733 87.9204 27.3477 87.9974 26.8248C87.9204 26.6907 87.8802 26.4963 87.8802 26.2449C87.8802 25.7421 88.1114 25.3533 88.5771 25.0818H88.5738ZM88.3426 34.6077L89.0395 34.725C89.311 34.725 89.6594 34.6882 90.085 34.6077C91.3415 34.6848 92.464 34.725 93.4525 34.725L94.4979 34.6077C96.046 34.8993 96.82 35.0904 96.82 35.1876C96.8971 35.1876 96.9741 35.3049 97.0512 35.5362C96.9741 36.0792 96.9339 36.5417 96.9339 36.9306C96.9339 37.3361 97.5136 37.6076 98.6763 37.7451V37.9763L98.559 38.2076C105.643 38.2076 98.6763 38.4992 98.6763 38.6735V38.7908C98.6763 39.0053 98.1737 39.1595 97.1651 39.2567C97.011 39.5081 96.9339 39.7394 96.9339 39.9539C96.9339 40.1852 96.9708 40.3025 97.0512 40.3025L96.9339 41.4656V54.4741C96.9339 55.1143 97.5538 55.5768 98.7902 55.8684L98.9075 56.0997V56.217C98.9075 56.2941 98.8673 56.3343 98.7902 56.3343C98.8673 56.4885 98.9075 56.6058 98.9075 56.6829H99.0248C99.1789 56.6829 99.256 56.6058 99.256 56.4517V56.3343L99.1387 56.1031L99.3699 55.9858C99.4872 56.5288 99.6782 56.8003 99.9496 56.8003L100.764 56.6829L101.923 56.9142C103.277 56.8371 104.128 56.7969 104.476 56.7969C105.096 56.7969 105.907 56.8371 106.916 56.9142L108.541 56.7969C109.566 56.874 110.417 56.9142 111.094 56.9142L111.212 57.1455C111.212 58.5197 111.134 59.4113 110.98 59.8169C111.134 60.2426 111.252 61.0571 111.329 62.257C111.329 62.9542 110.94 63.3028 110.166 63.3028C109.643 63.3799 108.829 63.4201 107.727 63.4201H100.643C100.469 63.4201 100.315 63.3799 100.177 63.3028C100.043 63.3799 99.8859 63.4201 99.7117 63.4201H99.4805C99.2292 63.4201 99.0349 63.3799 98.9008 63.3028L98.2039 63.4201C97.3729 63.4201 96.4816 63.343 95.5333 63.1889C94.3706 63.343 93.5195 63.4201 92.98 63.4201C92.903 63.4201 92.8628 63.3799 92.8628 63.3028L92.2831 63.4201H91.4688C91.0634 63.4201 90.792 63.2257 90.6546 62.8403C90.7317 61.7945 90.7719 61.0202 90.7719 60.5174V56.4517C90.7719 56.0059 90.5407 55.7344 90.0749 55.6372L89.4952 55.7545C88.4096 55.6372 87.8701 55.483 87.8701 55.2886V45.4141C87.8701 44.194 87.9103 42.1795 87.9874 39.374C88.1047 39.374 88.2588 39.2199 88.4532 38.9081L89.0328 39.0255H89.4986C89.6527 39.0255 89.7298 38.9484 89.7298 38.7942V37.8657C89.7298 37.6344 89.2272 37.4803 88.222 37.3998C87.9908 37.1082 87.8735 36.7998 87.8735 36.4714C87.8735 35.5228 88.0276 34.9027 88.3392 34.6144L88.3426 34.6077ZM95.5434 27.8705L95.6606 28.4504C96.1264 28.4504 96.3576 28.2191 96.3576 27.7532L96.1264 27.6359H95.7779C95.6238 27.656 95.5467 27.7331 95.5467 27.8672L95.5434 27.8705ZM95.6606 20.4362V20.5535C95.6807 20.7077 95.7578 20.7848 95.8918 20.7848L96.0091 20.5535V20.2049H95.8918C95.7377 20.225 95.6606 20.3021 95.6606 20.4362ZM110.059 58.8851V59.351C110.079 59.5052 110.156 59.5823 110.29 59.5823V58.8851H110.059ZM110.059 60.1621V60.3934H110.29V59.9275C110.136 59.9476 110.059 60.0247 110.059 60.1588V60.1621Z" fill="#00F0C9"/>
<path d="M134.895 17.2452C137.971 17.2452 140.216 17.5536 141.63 18.1737C143.024 18.7167 144.3 19.7624 145.463 21.311V21.5423C145.463 21.6964 144.961 21.8138 143.955 21.8909C143.104 21.8909 142.679 22.1624 142.679 22.7054L143.144 22.9366L143.959 22.8193L144.656 22.9366C145.081 22.8595 145.43 22.8193 145.701 22.8193C147.557 22.8763 148.489 23.1478 148.489 23.6338V24.2137C148.489 24.331 148.335 24.4852 148.023 24.6796L147.326 24.5623C147.229 24.5623 147.035 24.7567 146.746 25.1421C147.055 25.8192 147.212 27.2907 147.212 29.5565C147.095 29.5565 146.981 29.6738 146.864 29.9051C145.198 29.9822 143.962 30.0224 143.148 30.0224H139.314C139.063 30.0224 138.792 29.9051 138.5 29.6738C138.577 28.9968 138.618 28.5711 138.618 28.3968C138.386 26.2281 138.115 25.1455 137.803 25.1455V25.0282C137.803 24.8137 138.112 24.5455 138.731 24.2137V24.0964L138.266 23.9791C137.317 23.9791 136.62 24.2506 136.175 24.7935C135.632 24.7165 135.324 24.6762 135.247 24.6762C134.319 24.6762 133.658 25.8762 133.273 28.2761C133.601 29.0705 133.873 30.0392 134.087 31.1788H133.97C134.416 32.4558 135.692 34.1217 137.803 36.173C137.998 36.3272 138.5 36.5216 139.311 36.7529C139.465 36.6758 139.583 36.6356 139.66 36.6356C140.028 36.6557 140.725 37.1585 141.75 38.1439C141.556 38.2981 141.442 38.3752 141.402 38.3752C141.228 38.3752 141.074 38.335 140.936 38.2579C140.628 38.3752 140.471 38.4892 140.471 38.6065V38.7238C140.742 39.1696 141.245 39.555 141.978 39.8835C141.978 40.1349 142.558 40.8723 143.721 42.089C145.657 44.6834 146.622 46.6978 146.622 48.129C146.854 48.129 147.048 49.4832 147.202 52.1948C147.048 53.2406 146.971 53.8976 146.971 54.1691C146.971 54.4774 147.474 54.7121 148.479 54.8662H149.176C149.293 54.8662 171.432 55.2148 149.524 55.2148V55.3321C149.524 55.5634 148.787 55.721 147.319 55.798C147.242 55.798 147.202 55.7578 147.202 55.6807L146.622 55.798H142.558C142.441 55.798 142.327 55.9154 142.21 56.1466V56.3779C142.23 56.5321 142.307 56.6092 142.441 56.6092H144.994C145.885 56.6092 147.239 56.6494 149.059 56.7265L149.176 56.9578C148.77 58.4494 148.187 59.418 147.433 59.8605C147.433 60.0918 147.239 60.3264 146.854 60.5577L146.274 59.7432C145.869 59.7432 145.443 60.4403 144.997 61.8347C143.875 62.4548 142.404 62.7632 140.584 62.7632C140.584 62.9375 140.236 63.0548 139.539 63.1118H136.751C134.623 63.1118 132.569 62.4548 130.596 61.1375C130.053 60.6549 129.473 59.9945 128.853 59.1633V58.8147C128.853 58.6974 128.971 58.5834 129.202 58.4661H133.149C133.477 58.4661 133.903 58.4292 134.426 58.3488L135.123 58.5801C135.511 58.446 135.702 58.2114 135.702 57.8829C135.451 57.7287 135.22 57.6516 135.005 57.6516H128.85C128.076 57.6516 127.687 57.1488 127.687 56.1433C127.687 55.6405 127.456 55.2517 126.99 54.9802H126.176C125.013 54.9802 124.434 54.7858 124.434 54.4003C124.357 52.7747 124.316 51.4574 124.316 50.4519V50.3346C124.316 50.1603 124.276 50.0061 124.199 49.8686C124.41 49.2486 124.605 48.9402 124.779 48.9402H130.7C131.243 48.9603 131.514 49.0374 131.514 49.1715L132.094 49.0542H132.559L132.908 49.2854C132.908 49.577 132.831 50.3882 132.677 51.7256C132.928 53.1199 133.122 53.9713 133.256 54.2797C133.256 54.6685 134.03 54.8595 135.578 54.8595L135.81 54.7422C136.138 54.7422 136.486 55.0908 136.855 55.788C137.358 56.0964 137.746 56.2539 138.014 56.2539H138.246C138.691 56.2539 139.271 55.9053 139.988 55.2081V55.0908C138.44 55.0338 137.666 54.8394 137.666 54.5109C137.897 54.5109 138.091 53.7367 138.246 52.1881C138.246 50.0396 137.16 47.7536 134.995 45.3336C134.607 45.042 133.524 43.9225 131.745 41.965C129.577 40.3193 128.495 39.1595 128.495 38.4791V38.3618L128.612 38.1305L129.192 38.2478C129.346 38.2478 129.423 38.1707 129.423 38.0165V37.7853L128.609 36.7395L128.029 36.8568H127.798C126.307 36.8568 125.184 34.3798 124.43 29.4224V28.3767C124.43 27.6024 124.548 26.7108 124.779 25.7052L124.662 25.474C124.662 24.6997 125.318 24.3109 126.635 24.3109C126.866 24.1165 126.984 23.8081 126.984 23.3824C126.984 23.2081 126.595 23.0539 125.821 22.9165C125.667 22.7221 125.59 22.5679 125.59 22.4506C126.498 20.6875 127.312 19.682 128.029 19.4306C129.095 17.9592 131.377 17.2251 134.881 17.2251L134.895 17.2452ZM131.527 50.234V50.3513C131.45 51.32 131.41 51.8999 131.41 52.0943L131.641 52.2116H131.759C131.876 52.2116 132.03 52.0574 132.224 51.7457C132.224 51.3401 132.107 50.9915 131.876 50.6999C132.03 50.5055 132.107 50.3915 132.107 50.3513V50.234H131.527ZM132.224 28.2795C132.342 28.5878 132.455 28.7454 132.573 28.7454C132.727 28.7454 132.804 28.6683 132.804 28.5141L132.687 27.9342H132.569C132.452 27.9342 132.338 28.0515 132.221 28.2828L132.224 28.2795ZM145.926 52.3255C145.926 53.0026 145.885 53.5825 145.808 54.0685H146.274L146.043 52.3255H145.926ZM145.926 25.9566V26.3052H146.043V25.9566H145.926ZM146.854 58.5968L146.505 59.1767L146.736 59.294C146.854 59.294 146.968 59.1767 147.085 58.9454V58.8281C147.085 58.6739 147.008 58.5968 146.854 58.5968Z" fill="#00F0C9"/>
<path d="M167.136 17.5938H175.147L175.844 17.7111L176.075 17.5938C176.87 17.6709 177.489 17.7111 177.932 17.7111H178.163C178.491 17.7111 178.686 18.4854 178.743 20.0339C179.034 20.8082 179.225 21.9311 179.322 23.4025C179.554 23.4025 179.708 23.9824 179.788 25.1455C180.019 25.3198 189.676 25.5142 190.762 25.7254C190.762 26.1142 190.839 26.4225 190.993 26.6538C190.993 27.0426 181.453 27.2739 180.368 27.351C180.214 27.6024 180.137 27.7968 180.137 27.9309C180.428 28.1622 180.696 28.2795 180.951 28.2795H181.765C182.154 28.4739 182.345 28.7822 182.345 29.2079C182.227 29.5163 181.919 29.6738 181.417 29.6738V29.9051C182.191 29.9051 182.579 30.2135 182.579 30.8336V31.6481C182.579 31.8022 182.077 31.9196 181.071 31.9967L180.84 32.4626C180.84 32.791 181.071 33.7966 181.537 35.4826C181.614 36.8367 181.654 37.6512 181.654 37.9227C181.866 37.9227 182.1 38.8512 182.351 40.7114C182.06 40.8656 181.752 40.9427 181.423 40.9427H177.707C177.59 40.9427 177.476 41.06 177.359 41.2913V41.6399C177.359 41.7572 177.476 41.8712 177.707 41.9885H180.609C182.003 41.9885 182.7 42.26 182.7 42.803C182.7 44.7973 183.048 46.9257 183.745 49.1916C183.745 49.2687 183.705 49.3089 183.628 49.3089L183.745 49.8888V50.4686L183.628 51.0485C183.745 51.0485 183.899 51.2027 184.094 51.5144V51.6317C184.017 51.863 183.786 51.9803 183.397 51.9803H182.583C182.137 52.5233 181.829 52.7948 181.654 52.7948C181.5 52.7177 181.383 52.6775 181.306 52.6775L181.189 52.9088V53.14C181.246 53.606 181.363 53.8372 181.537 53.8372C181.537 53.7199 181.732 53.5657 182.117 53.3713H182.234C182.68 54.2227 183.105 54.6484 183.511 54.6484C184.593 54.8026 185.136 55.0741 185.136 55.4629C185.525 55.9087 185.716 56.2573 185.716 56.5086C185.89 57.7488 186.044 58.6002 186.181 59.0628C186.064 59.7599 185.91 60.1085 185.716 60.1085L185.136 59.8772C184.633 60.1085 184.09 60.2258 183.511 60.2258H180.723C180.606 60.2258 180.492 60.3432 180.374 60.5744C180.492 60.8828 180.606 61.0403 180.723 61.0403H184.322C184.419 61.0403 184.844 61.1174 185.598 61.2716L186.178 61.1543C186.567 61.5599 186.758 61.8716 186.758 62.0828C186.506 62.2202 185.655 62.3744 184.204 62.5487L183.39 62.4313L182.81 62.5487C182.405 62.4716 182.17 62.4313 182.114 62.4313L181.299 62.5487C180.622 62.4716 180.197 62.4313 180.023 62.4313L178.629 62.5487V62.4313L178.398 62.5487H178.28C177.855 62.5487 177.543 62.3543 177.352 61.9688L177.469 60.923C177.238 60.0515 176.927 58.3488 176.541 55.8115V55.1143C176.541 55.0573 176.424 54.94 176.193 54.7657C176.039 54.8428 175.921 54.883 175.844 54.883C175.301 54.883 173.676 54.6886 170.969 54.3031C169.806 54.3802 168.841 54.4205 168.067 54.4205L167.95 54.6517C168.027 55.1176 168.144 55.3489 168.298 55.3489H168.53L168.878 55.1176H169.227C169.344 55.1176 169.458 55.235 169.575 55.4662L168.647 60.4605V61.9721C168.647 62.1666 168.375 62.3207 167.833 62.4381L167.601 62.3207C166.613 62.4749 166.033 62.552 165.859 62.552C165.819 62.552 165.316 62.5118 164.351 62.4347C164.311 62.4347 163.808 62.4749 162.84 62.552L162.26 62.4347C162.106 62.5118 161.989 62.552 161.912 62.552L161.446 62.4347L160.866 62.552C160.324 62.4347 160.052 62.2805 160.052 62.0861L160.866 58.3689C160.866 58.0404 160.943 57.2259 161.098 55.9288V55.2316C161.098 55.1143 160.98 55.0003 160.749 54.883H159.472C159.067 54.883 158.796 54.7288 158.658 54.4171V54.2998C158.812 53.5456 158.889 53.1199 158.889 53.0227V52.9054C158.889 52.7311 158.849 52.5769 158.772 52.4395C158.772 52.0138 159.429 51.7826 160.746 51.7423C160.92 51.2764 161.151 51.0083 161.443 50.9278L162.14 51.0452C162.488 50.891 162.682 50.7368 162.719 50.5792C162.719 50.348 162.254 50.1904 161.325 50.1133C161.171 49.9189 161.094 49.805 161.094 49.7648V49.6474C161.868 45.9101 162.257 43.4733 162.257 42.3304C162.877 39.602 163.185 38.1305 163.185 37.916C163.185 37.859 163.145 37.6244 163.068 37.2188L163.765 33.8502L163.647 33.6189C163.647 32.8246 163.956 32.1274 164.576 31.5274L165.39 31.6447H165.621C165.815 31.6447 166.087 30.676 166.435 28.742C166.358 28.5878 166.318 28.4705 166.318 28.3934H165.155C165.038 28.3934 164.884 28.2392 164.69 27.9275V27.5789C164.921 27.1935 165.192 26.9991 165.504 26.9991C165.929 27.0762 166.238 27.1164 166.432 27.1164C166.663 26.7678 166.78 26.4963 166.78 26.3019C166.78 26.0907 166.586 25.8963 166.201 25.722C166.063 25.7991 165.909 25.8393 165.735 25.8393C165.269 25.5678 165.038 25.3734 165.038 25.2595C165.812 21.2138 166.201 18.8139 166.201 18.0564C166.529 17.748 166.841 17.5905 167.129 17.5905L167.136 17.5938ZM171.549 32.8112L171.666 33.9742V34.0916C171.666 34.2659 171.626 34.42 171.549 34.5575C171.549 34.6346 171.589 34.6748 171.666 34.6748C171.589 35.9317 171.358 37.4032 170.969 39.0891L170.155 45.3604H169.923C169.729 45.3604 169.575 45.0521 169.458 44.432L169.575 43.9661C169.498 43.8119 169.458 43.6946 169.458 43.6175H169.34C169.186 43.6376 169.109 43.7147 169.109 43.8488V46.5202C169.109 46.6744 169.263 46.7514 169.575 46.7514V47.3313C169.575 47.4855 169.498 47.5626 169.344 47.5626H169.113L168.533 47.4453L168.416 47.6766L171.203 48.1425C171.26 48.1425 171.495 48.1056 171.9 48.0251C171.977 48.0251 172.095 48.0654 172.249 48.1425C172.674 48.0654 173.023 48.0251 173.294 48.0251H174.222C174.377 48.0251 174.454 47.9481 174.454 47.7939C173.368 40.9226 172.711 36.1965 172.48 33.6223C172.383 33.6223 172.189 33.3508 171.9 32.8078H171.552L171.549 32.8112ZM177.587 19.8027V20.1513L178.166 20.2686L178.284 20.0373V19.806L178.052 19.4574C177.744 19.5747 177.587 19.6887 177.587 19.806V19.8027ZM178.284 23.5199L178.515 23.6372H178.632V23.2886H178.515C178.361 23.3087 178.284 23.3858 178.284 23.5199ZM180.14 33.743V35.02C180.14 35.5831 180.257 35.8915 180.488 35.9485L180.606 35.7172V34.7887C180.683 34.4603 180.723 34.1888 180.723 33.9742C180.589 33.9742 180.395 33.8971 180.143 33.743H180.14ZM181.417 54.1858V54.3031H181.648V54.1858H181.417ZM182.462 48.9603V49.4262H182.579V48.9603H182.462ZM182.462 49.6575V49.8888H182.579V49.6575H182.462Z" fill="#00F0C9"/>
</g>
<defs>
<clipPath id="clip0_182_652">
<rect width="191" height="64" fill="white"/>
</clipPath>
</defs>
</svg>
